<svg width="32" height="32" viewBox="0 0 32 32" fill="none" xmlns="http://www.w3.org/2000/svg">
    <path d="M19 17.3334C19 18.9903 17.6569 20.3334 16 20.3334V22.3334C18.7614 22.3334 21 20.0948 21 17.3334H19ZM16 20.3334C14.3431 20.3334 13 18.9903 13 17.3334H11C11 20.0948 13.2386 22.3334 16 22.3334V20.3334ZM13 17.3334C13 15.6766 14.3431 14.3334 16 14.3334V12.3334C13.2386 12.3334 11 14.572 11 17.3334H13ZM16 14.3334C17.6569 14.3334 19 15.6766 19 17.3334H21C21 14.572 18.7614 12.3334 16 12.3334V14.3334ZM27 12.0001V22.6667H29V12.0001H27ZM25.3333 24.3334H6.66667V26.3334H25.3333V24.3334ZM5 22.6667V12.0001H3V22.6667H5ZM6.66667 10.3334H10V8.33341H6.66667V10.3334ZM22 10.3334H25.3333V8.33341H22V10.3334ZM12.6667 7.66675H19.3333V5.66675H12.6667V7.66675ZM19.6667 8.00008C19.6667 9.28875 20.7113 10.3334 22 10.3334V8.33341C21.8159 8.33341 21.6667 8.18418 21.6667 8.00008H19.6667ZM10 10.3334C11.2887 10.3334 12.3333 9.28875 12.3333 8.00008H10.3333C10.3333 8.18418 10.1841 8.33341 10 8.33341V10.3334ZM21.6667 8.00008C21.6667 6.71142 20.622 5.66675 19.3333 5.66675V7.66675C19.5174 7.66675 19.6667 7.81599 19.6667 8.00008H21.6667ZM12.3333 8.00008C12.3333 7.81599 12.4826 7.66675 12.6667 7.66675V5.66675C11.378 5.66675 10.3333 6.71142 10.3333 8.00008H12.3333ZM6.66667 24.3334C5.74619 24.3334 5 23.5872 5 22.6667H3C3 24.6918 4.64162 26.3334 6.66667 26.3334V24.3334ZM27 22.6667C27 23.5872 26.2538 24.3334 25.3333 24.3334V26.3334C27.3584 26.3334 29 24.6918 29 22.6667H27ZM29 12.0001C29 9.97504 27.3584 8.33341 25.3333 8.33341V10.3334C26.2538 10.3334 27 11.0796 27 12.0001H29ZM5 12.0001C5 11.0796 5.74619 10.3334 6.66667 10.3334V8.33341C4.64162 8.33341 3 9.97504 3 12.0001H5Z" fill="black"/>
</svg>